<svg width="132" height="36" viewBox="0 0 132 36" fill="none" xmlns="http://www.w3.org/2000/svg">
<path d="M9.6001 25.0562H20.6401V34.3682H9.7692e-05V0.768162H9.6001V25.0562ZM51.3102 30.0962C47.8862 33.4562 43.6782 35.1362 38.6862 35.1362C33.6942 35.1362 29.4702 33.4562 26.0142 30.0962C22.5902 26.7042 20.8782 22.5282 20.8782 17.5682C20.8782 12.6082 22.5902 8.44816 26.0142 5.08816C29.4702 1.69616 33.6942 0.000163078 38.6862 0.000163078C43.6782 0.000163078 47.8862 1.69616 51.3102 5.08816C54.7662 8.44816 56.4942 12.6082 56.4942 17.5682C56.4942 22.5282 54.7662 26.7042 51.3102 30.0962ZM32.7822 23.4242C34.3502 24.9602 36.3182 25.7282 38.6862 25.7282C41.0542 25.7282 43.0062 24.9602 44.5422 23.4242C46.1102 21.8562 46.8942 19.9042 46.8942 17.5682C46.8942 15.2322 46.1102 13.2962 44.5422 11.7602C43.0062 10.1922 41.0542 9.40816 38.6862 9.40816C36.3182 9.40816 34.3502 10.1922 32.7822 11.7602C31.2462 13.2962 30.4782 15.2322 30.4782 17.5682C30.4782 19.9042 31.2462 21.8562 32.7822 23.4242ZM93.5498 14.5442V18.5282C93.5498 23.3282 91.9978 27.2962 88.8938 30.4322C85.8218 33.5682 81.7738 35.1362 76.7498 35.1362C71.5018 35.1362 67.2138 33.4722 63.8858 30.1442C60.5578 26.7842 58.8938 22.6082 58.8938 17.6162C58.8938 12.6242 60.5578 8.44816 63.8858 5.08816C67.2138 1.69616 71.3738 0.000163078 76.3658 0.000163078C79.5018 0.000163078 82.3658 0.704163 84.9578 2.11216C87.5818 3.52016 89.6458 5.42416 91.1498 7.82416L82.9898 12.4802C81.6458 10.4322 79.5018 9.40816 76.5578 9.40816C74.1578 9.40816 72.2058 10.1762 70.7018 11.7122C69.2298 13.2482 68.4938 15.2322 68.4938 17.6642C68.4938 19.9682 69.1818 21.9842 70.5578 23.7122C71.9338 25.4082 74.0618 26.2562 76.9418 26.2562C80.2698 26.2562 82.4938 25.0722 83.6138 22.7042H76.4618V14.5442H93.5498ZM126.404 30.0962C122.98 33.4562 118.772 35.1362 113.78 35.1362C108.788 35.1362 104.564 33.4562 101.108 30.0962C97.684 26.7042 95.972 22.5282 95.972 17.5682C95.972 12.6082 97.684 8.44816 101.108 5.08816C104.564 1.69616 108.788 0.000163078 113.78 0.000163078C118.772 0.000163078 122.98 1.69616 126.404 5.08816C129.86 8.44816 131.588 12.6082 131.588 17.5682C131.588 22.5282 129.86 26.7042 126.404 30.0962ZM107.876 23.4242C109.444 24.9602 111.412 25.7282 113.78 25.7282C116.148 25.7282 118.1 24.9602 119.636 23.4242C121.204 21.8562 121.988 19.9042 121.988 17.5682C121.988 15.2322 121.204 13.2962 119.636 11.7602C118.1 10.1922 116.148 9.40816 113.78 9.40816C111.412 9.40816 109.444 10.1922 107.876 11.7602C106.34 13.2962 105.572 15.2322 105.572 17.5682C105.572 19.9042 106.34 21.8562 107.876 23.4242Z" fill="black"/>
</svg>
